<?xml version="1.0" encoding="utf-8"?>
<!-- Generator: Adobe Illustrator 14.0.0, SVG Export Plug-In . SVG Version: 6.00 Build 43363)  -->
<!DOCTYPE svg PUBLIC "-//W3C//DTD SVG 1.1//EN" "http://www.w3.org/Graphics/SVG/1.1/DTD/svg11.dtd">
<svg version="1.1" id="Layer_1" xmlns="http://www.w3.org/2000/svg" xmlns:xlink="http://www.w3.org/1999/xlink" x="0px" y="0px"
	 width="250px" height="234px" viewBox="0 0 250 234" enable-background="new 0 0 250 234" xml:space="preserve">
<g>
	<path fill="#BC1B20" d="M37.248,218.327l-0.487-0.217c0.044-0.128,0.094-0.246,0.094-0.473c0-0.618-3.717-1.436-7.809-1.436
		c-3.914,0-8.973,1.103-8.973,4.278c0,3.182,5.06,4.277,8.973,4.277c1.687,0,8.103-0.841,8.103-1.745
		c0-0.192-0.191-0.31-0.294-0.472l0.536-0.217l4.971,4.897l-0.58,0.211c-0.143-0.211-0.34-0.24-0.679-0.24
		c-0.964,0-5.453,1.682-12.636,1.682c-7.72,0-15.921-2.798-15.921-8.394c0-5.591,8.201-8.394,15.921-8.394
		c3.859,0,6.613,0.311,8.535,0.659c1.884,0.339,2.847,0.59,3.334,0.59c0.286,0,0.521-0.094,0.718-0.251l0.536,0.094L37.248,218.327"
		/>
	<path fill="#BC1B20" d="M60.348,222.639h8.973l-4.681-7.424L60.348,222.639 M59.133,225.132c-1.249,2.281-1.534,2.685-1.534,2.871
		c0,0.188,0.187,0.31,0.865,0.31v0.369h-8.541v-0.369c0.679-0.088,0.969-0.216,1.254-0.708c0.433-0.737,8.59-14.455,8.59-14.642
		c0-0.217-0.531-0.276-0.963-0.314v-0.375h12.592v0.375c-0.531,0.038-0.87,0.098-0.87,0.407c0,0.252,5.935,9.583,8.924,14.323
		c0.477,0.747,0.772,0.934,1.352,0.934v0.369h-9.504v-0.369c0.673-0.034,0.919-0.187,0.919-0.373c0-0.123-1.45-2.399-1.642-2.808
		H59.133z"/>
	<path fill="#BC1B20" d="M91.403,213.204c0-0.266-0.143-0.497-1.348-0.556v-0.375h11.624v0.375c-1.106,0.038-1.342,0.22-1.342,0.407
		c0,0.339,8.339,6.083,11.717,8.487v-8.339c0-0.374-0.383-0.518-1.013-0.556v-0.375h8.826v0.375
		c-1.209,0.059-1.352,0.29-1.352,0.556v14.553c0,0.281,0.143,0.497,1.352,0.556v0.369h-9.165v-0.369
		c0.865,0,1.111-0.122,1.111-0.339c0-0.407-1.205-0.815-13.945-10.021v9.804c0,0.281,0.148,0.497,1.348,0.556v0.369h-9.161v-0.369
		c1.205-0.059,1.348-0.274,1.348-0.556V213.204"/>
	<path fill="#BC1B20" d="M139.44,222.639h8.979l-4.682-7.424L139.44,222.639 M138.236,225.132c-1.254,2.281-1.543,2.685-1.543,2.871
		c0,0.188,0.196,0.31,0.869,0.31v0.369h-8.54v-0.369c0.679-0.088,0.969-0.216,1.254-0.708c0.438-0.737,8.59-14.455,8.59-14.642
		c0-0.217-0.531-0.276-0.964-0.314v-0.375h12.597v0.375c-0.54,0.038-0.869,0.098-0.869,0.407c0,0.252,5.929,9.583,8.919,14.323
		c0.487,0.747,0.772,0.934,1.352,0.934v0.369h-9.504v-0.369c0.679-0.034,0.919-0.187,0.919-0.373c0-0.123-1.45-2.399-1.646-2.808
		H138.236z"/>
	<path fill="#BC1B20" d="M177.749,224.999h6.126c5.104,0,7.18-1.863,7.18-4.519c0-2.66-2.075-4.524-7.18-4.524h-6.126V224.999
		 M170.501,213.204c0-0.266-0.137-0.497-1.347-0.556v-0.375h16.02c8.875,0,13.021,3.555,13.021,8.207
		c0,4.277-4.588,8.201-13.551,8.201h-15.489v-0.369c1.21-0.059,1.347-0.274,1.347-0.556V213.204z"/>
	<path fill="#BC1B20" d="M215.845,222.639h8.975l-4.677-7.424L215.845,222.639 M214.636,225.132
		c-1.249,2.281-1.539,2.685-1.539,2.871c0,0.188,0.192,0.31,0.86,0.31v0.369h-8.53v-0.369c0.679-0.088,0.964-0.216,1.259-0.708
		c0.428-0.737,8.585-14.455,8.585-14.642c0-0.217-0.536-0.276-0.969-0.314v-0.375h12.592v0.375c-0.535,0.038-0.87,0.098-0.87,0.407
		c0,0.252,5.939,9.583,8.92,14.323c0.491,0.747,0.776,0.934,1.361,0.934v0.369h-9.515v-0.369c0.684-0.034,0.925-0.187,0.925-0.373
		c0-0.123-1.451-2.399-1.643-2.808H214.636z"/>
	<path fill="#FFFFFF" d="M189.257,167.605c1.436-1.623,2.813-2.588,2.814-2.588L245,126.947l-19.611-7.363
		c-0.077-0.03-0.566-0.345-0.649-0.51c-0.118-0.498,0.085-1.758,0.341-2.535l11.222-36.312l-32.57,7.541l-0.13,0.033
		c-0.626,0.169-2.735,0.651-4.165,0.651c-0.167,0-0.288-0.007-0.369-0.015c-0.292-0.254-0.755-0.955-0.981-1.498L190.44,69.52
		l-28.204,31.31l-0.177,0.083c-0.178,0.036-0.457-0.025-0.775-0.17c-0.043-0.02-0.079-0.037-0.107-0.053
		c0.002-0.03,0.006-0.063,0.011-0.093l4.67-20.088l0.003,0.003l10.372-44.756l-26.715,14.502c-0.208,0.066-0.798,0.191-1.369,0.041
		c-0.419-0.107-0.687-0.306-0.821-0.43L124.988,5.126l-22.317,44.783c-0.128,0.108-0.386,0.284-0.818,0.397
		c-0.507,0.134-1.123,0.022-1.31-0.037L73.797,35.758l14.943,64.449l0.125,0.426c0,0-0.002,0.023-0.005,0.052
		c-0.029,0.017-0.067,0.036-0.116,0.058c-0.458,0.206-0.824,0.184-0.938,0.102L59.601,69.52l-7.602,17.303l-0.042,0.099
		c-0.234,0.563-0.695,1.265-0.987,1.518c-0.081,0.007-0.203,0.015-0.371,0.015c-1.42,0-3.49-0.471-4.164-0.651l-32.7-7.574
		l11.185,36.214l0.03,0.093c0.256,0.771,0.463,2.041,0.351,2.516c-0.068,0.141-0.413,0.412-0.688,0.545L5,126.965l53.434,38.003
		c0.527,0.402,1.525,1.224,2.549,2.371c0.093,0.214,0.015,0.907-0.149,1.342l-10.505,26.212l74.659-14.521l74.59,14.508
		l-10.146-25.963C189.266,168.476,189.187,167.783,189.257,167.605z"/>
	<polygon points="150.401,105.385 149.359,108.184 147.785,110.971 146.217,112.888 147.098,114.284 151.104,116.724 
		153.538,118.292 154.413,109.058 151.803,107.141 	"/>
	<path d="M186.452,165.126c1.8-2.035,3.511-3.201,3.511-3.201l47.174-33.932l-13.134-4.932c0,0-2.396-0.954-2.906-3.122
		c-0.462-1.947,0.438-4.603,0.438-4.603l9.268-29.994l-26.227,6.073c0,0-4.283,1.156-6.476,0.654
		c-2.198-0.502-3.491-3.742-3.491-3.742l-5.267-11.997l-24.388,27.072c0,0-0.757,0.896-2.139,1.176l-2.124,2.207l-1.225,1.225
		l-0.865,1.047l-0.334,0.295l-1.042,10.114h1.219l1.918,0.881l0.693,1.745l-1.392,1.735l1.042,1.578l-0.521,1.741l0.87,0.172
		l-0.35,0.692l-1.912,2.101l-2.793,1.042l-4.578,39.035l0.044,2.145l1.466-0.295l6.117-2.016l0.87,0.348l-0.526,2.548l-1.22,2.621
		l-1.514,1.136l-5.503,0.836l-3.235,0.167l-0.703-0.698l-0.172-1.75l5.104-44.036l-1.047,0.172l-1.745-1.215l-2.095-2.089
		l-2.611-1.913l-4.533,10.969l-2.965,4.883l-1.741,2.793l-1.219,1.917l-1.918,1.396l-0.875,2.617l-1.568,3.844l-2.438,3.31
		l-2.798,2.435l-7.489,7.848l-2.444,2.625l-1.574,1.032l-1.047,1.751l-1.392,2.094l-1.573,1.039l-1.917-1.039l-3.138,1.913
		l-0.349-0.517l1.392-3.845l-0.865-1.042v-1.215l1.396-2.1l1.735-2.61l1.579-3.143l0.516,0.35l0.875-1.918l1.913-1.224l1.224-2.616
		l1.918-5.227l2.267-4.534l2.09-4.007l1.224-1.745l0.172-1.913l1.047-1.578l0.526-1.745l0.521-2.085l-0.521-3.668l-0.698-3.653
		l-1.047,0.167l-1.391,0.87l-3.142,2.97l-4.189,4.711l-2.96,1.735l-1.568,2.793l-1.396,1.573l-3.137,0.167l-0.698,1.401
		l-2.444,2.257l-2.434,1.574l-3.314,0.874l-1.922,1.225l-1.047,2.788l-2.084,2.605l-4.892,3.845l-9.063,7.489l-2.965,2.975
		l-2.611,2.95l-1.573,2.276l-1.396,1.215h-1.564l-3.235,1.879l-5.551,12.026l68.63-13.35l68.625,13.35l-7.661-19.604
		C185.955,170.303,184.652,167.161,186.452,165.126"/>
	<path fill="#BC1B20" d="M26.027,123.062l-13.123,4.932l52.646,37.442l2.906-2.67l1.047-1.229v-0.698l0.521-0.525l-0.177-1.216
		v-1.922l2.271-1.745l3.137-4.533l2.444-3.481l3.83-4.361l2.789-2.616l2.625-1.057v-1.564l2.96-2.434v-0.693l8.191-13.428
		l1.401-2.448l4.528-6.618l0.178-1.053l0.526-3.485l2.434-2.444l1.75-1.386l1.047,0.348l-0.177-2.797l0.521-2.267l4.361-10.291
		l2.96-4.19l2.97-1.735l4.877-2.787l3.486-1.396l2.095,0.172v-0.693l5.055-1.75l-0.694-3.31l0.173-3.481l0.344-0.525l0.88-3.491
		l2.784-3.314h1.396l0.875,0.354l4.877-0.177l1.043-0.178l2.616,2.626l1.401,2.788l1.047,0.688v3.143l0.521,0.349l-0.875,1.569
		l2.267-1.392l2.095-0.698h2.267l2.788,0.698l1.671,1.671l7.126-30.745L151.1,53.658c0,0-1.755,0.826-3.88,0.267
		c-2.114-0.541-3.054-2.006-3.054-2.006l-19.175-38.407l0.015,0.045L105.83,51.963c0,0-0.871,1.401-3.019,1.962
		c-2.153,0.57-3.87-0.267-3.87-0.267L79.322,43.014l13.064,56.348c0,0,1.194,3.31-2.104,4.795c-3.31,1.489-5.207-0.753-5.207-0.753
		L60.697,76.331l-5.271,11.997c0,0-1.288,3.24-3.491,3.742c-2.193,0.502-6.476-0.654-6.476-0.654l-26.227-6.073l9.264,29.994
		c0,0,0.91,2.655,0.438,4.603C28.422,122.107,26.027,123.062,26.027,123.062"/>
	<path d="M130.267,191.79c0,1.013-2.365,1.859-5.276,1.859c-2.92,0-5.286-0.847-5.286-1.859v-1.436c0-1.008,2.365-1.84,5.286-1.84
		c2.911,0,5.276,0.832,5.276,1.84V191.79"/>
	<path d="M204.576,173.194c0.653,0,1.662,0.107,1.662-0.835c0-0.719-0.625-0.803-1.205-0.803h-1.328v1.638H204.576 M206.749,175.78
		h-0.673l-1.328-2.134h-1.043v2.134h-0.564v-4.631h2.021c0.394,0,0.781,0.019,1.132,0.226c0.343,0.188,0.516,0.601,0.516,0.988
		c0,0.914-0.635,1.254-1.46,1.283L206.749,175.78z M208.323,173.455c0-2.017-1.628-3.639-3.639-3.639
		c-2.026,0-3.648,1.622-3.648,3.639c0,2.03,1.622,3.663,3.648,3.663C206.695,177.118,208.323,175.485,208.323,173.455
		 M200.52,173.455c0-2.281,1.854-4.15,4.165-4.15c2.291,0,4.141,1.869,4.141,4.15c0,2.307-1.85,4.165-4.141,4.165
		C202.373,177.62,200.52,175.762,200.52,173.455"/>
</g>
</svg>
